<svg width="20" height="20" viewBox="0 0 20 20" fill="none" xmlns="http://www.w3.org/2000/svg">
<g clip-path="url(#clip0_1_566)">
<path d="M14.3082 20C14.1985 20.0006 14.0898 19.9796 13.9883 19.9381C13.8867 19.8967 13.7944 19.8356 13.7165 19.7583L6.9082 12.95C6.52017 12.563 6.21231 12.1032 6.00226 11.597C5.79221 11.0907 5.68408 10.5481 5.68408 10C5.68408 9.45195 5.79221 8.90927 6.00226 8.40306C6.21231 7.89686 6.52017 7.43706 6.9082 7.05001L13.7165 0.241689C13.7942 0.16399 13.8865 0.102356 13.988 0.0603057C14.0895 0.0182555 14.1983 -0.00338745 14.3082 -0.00338745C14.4181 -0.00338745 14.5269 0.0182555 14.6284 0.0603057C14.7299 0.102356 14.8222 0.16399 14.8999 0.241689C14.9776 0.319387 15.0392 0.411629 15.0812 0.513147C15.1233 0.614665 15.1449 0.723472 15.1449 0.833355C15.1449 0.943237 15.1233 1.05204 15.0812 1.15356C15.0392 1.25508 14.9776 1.34732 14.8999 1.42502L8.09153 8.23335C7.62336 8.7021 7.3604 9.33751 7.3604 10C7.3604 10.6625 7.62336 11.2979 8.09153 11.7667L14.8999 18.575C14.978 18.6525 15.04 18.7446 15.0823 18.8462C15.1246 18.9477 15.1464 19.0567 15.1464 19.1667C15.1464 19.2767 15.1246 19.3856 15.0823 19.4871C15.04 19.5887 14.978 19.6809 14.8999 19.7583C14.822 19.8356 14.7297 19.8967 14.6281 19.9381C14.5266 19.9796 14.4179 20.0006 14.3082 20Z" fill="#FCFCFD"/>
</g>
<defs>
<clipPath id="clip0_1_566">
<rect width="20" height="20" fill="white"/>
</clipPath>
</defs>
</svg>
