<svg width="20" height="20" viewBox="0 0 20 20" fill="none" xmlns="http://www.w3.org/2000/svg">
<g clip-path="url(#clip0_1_564)">
<path d="M5.83316 20C5.72349 20.0006 5.61477 19.9796 5.51324 19.9381C5.41171 19.8967 5.31936 19.8356 5.24149 19.7583C5.16339 19.6809 5.10139 19.5887 5.05908 19.4871C5.01678 19.3856 4.995 19.2767 4.995 19.1667C4.995 19.0567 5.01678 18.9477 5.05908 18.8462C5.10139 18.7446 5.16339 18.6525 5.24149 18.575L12.0498 11.7667C12.518 11.2979 12.781 10.6625 12.781 10C12.781 9.33751 12.518 8.7021 12.0498 8.23335L5.24149 1.42502C5.08457 1.2681 4.99642 1.05527 4.99642 0.833355C4.99642 0.611437 5.08457 0.398608 5.24149 0.241689C5.39841 0.084769 5.61124 -0.00338745 5.83316 -0.00338745C6.05508 -0.00338745 6.26791 0.084769 6.42483 0.241689L13.2332 7.05001C13.6212 7.43706 13.929 7.89686 14.1391 8.40306C14.3492 8.90927 14.4573 9.45195 14.4573 10C14.4573 10.5481 14.3492 11.0907 14.1391 11.597C13.929 12.1032 13.6212 12.563 13.2332 12.95L6.42483 19.7583C6.34696 19.8356 6.25461 19.8967 6.15308 19.9381C6.05155 19.9796 5.94283 20.0006 5.83316 20Z" fill="#FCFCFD"/>
</g>
<defs>
<clipPath id="clip0_1_564">
<rect width="20" height="20" fill="white"/>
</clipPath>
</defs>
</svg>
