<svg width="33" height="25" viewBox="0 0 33 25" fill="none" xmlns="http://www.w3.org/2000/svg">
<g clip-path="url(#clip0_75_59)">
<path d="M9.29975 9.07952C9.29124 9.49733 9.33192 9.91441 9.42046 10.317C9.51798 10.6613 9.63541 10.996 9.77179 11.3185C9.82061 11.4138 9.84725 11.5247 9.84864 11.6383C9.84864 11.7773 9.78276 11.9165 9.6401 12.0554L8.94867 12.6394C8.86524 12.7155 8.76605 12.759 8.66334 12.7645C8.53833 12.7536 8.42098 12.6843 8.33409 12.5699C8.18615 12.3686 8.05379 12.1497 7.93884 11.9164C7.82911 11.68 7.71926 11.4157 7.59861 11.096C6.74253 12.375 5.66692 13.0145 4.37176 13.0145C3.44951 13.0145 2.71448 12.6807 2.17669 12.013C1.6389 11.3454 1.36449 10.456 1.36449 9.34371C1.36449 8.16185 1.69373 7.20245 2.36327 6.47942C3.03281 5.75639 3.92174 5.39484 5.05221 5.39484C5.44155 5.39887 5.83022 5.43604 6.21562 5.50611C6.62172 5.57565 7.0388 5.68684 7.47778 5.81203V4.79699C7.47778 3.73991 7.30211 3.00337 6.96195 2.57227C6.61062 2.14125 6.01806 1.93269 5.17292 1.93269C4.77351 1.93267 4.37555 1.99335 3.98755 2.11343C3.58408 2.2352 3.18796 2.39318 2.80219 2.58618C2.67737 2.65692 2.54905 2.7173 2.41804 2.76691C2.36121 2.79065 2.30214 2.80468 2.24238 2.80864C2.08873 2.80864 2.01188 2.66963 2.01188 2.37762V1.69632C2.01188 1.47378 2.03384 1.30687 2.08873 1.20966C2.17155 1.08292 2.2769 0.982852 2.39615 0.917654C2.83636 0.641717 3.30047 0.431745 3.77907 0.291989C4.33834 0.110192 4.9139 0.0213822 5.49125 0.0277976C6.79758 0.0277976 7.75219 0.403181 8.36684 1.15403C8.9705 1.90487 9.27779 3.04501 9.27779 4.57452V9.07952H9.29975ZM4.84373 11.193C5.22877 11.1876 5.61056 11.1031 5.97421 10.9427C6.37705 10.7661 6.73647 10.4593 7.01685 10.0525C7.19377 9.79623 7.32149 9.49156 7.39001 9.16234C7.46542 8.7663 7.50227 8.36005 7.49974 7.95266V7.36928C7.16696 7.26665 6.82991 7.18774 6.49016 7.1329C6.14792 7.07798 5.80329 7.05024 5.45831 7.04985C4.72296 7.04985 4.18518 7.23058 3.82299 7.6062C3.46081 7.98183 3.2852 8.50997 3.2852 9.20518C3.2852 9.85866 3.41695 10.3453 3.6913 10.6791C3.9548 11.0267 4.33888 11.1935 4.84373 11.1935V11.193ZM13.657 12.6947C13.4594 12.6947 13.3278 12.6529 13.2399 12.5557C13.1521 12.4722 13.0753 12.2775 13.0094 12.0134L10.4301 1.2653C10.3801 1.08538 10.347 0.898652 10.3313 0.70894C10.3313 0.486397 10.4192 0.361295 10.5948 0.361295H11.6704C11.879 0.361295 12.0217 0.403022 12.0985 0.500306C12.1863 0.583759 12.2521 0.778485 12.3181 1.0426L14.1619 10.2472L15.874 1.04284C15.9289 0.764656 15.9947 0.583998 16.0826 0.500544C16.1704 0.41709 16.3241 0.361534 16.5217 0.361534H17.4001C17.6086 0.361534 17.7514 0.403261 17.8392 0.500544C17.9271 0.583998 18.0039 0.778724 18.0478 1.04284L19.7819 10.3588L21.68 1.04284C21.7459 0.764656 21.8227 0.583998 21.8996 0.500544C21.9875 0.41709 22.1301 0.361534 22.3277 0.361534H23.3484C23.5241 0.361534 23.6228 0.472806 23.6228 0.709179C23.6203 0.783989 23.6129 0.858414 23.6009 0.931722C23.5837 1.05033 23.558 1.1667 23.524 1.27937L20.8789 12.0274C20.8131 12.3055 20.7363 12.4863 20.6484 12.5697C20.5244 12.6703 20.3785 12.719 20.2314 12.7087H19.2874C19.0789 12.7087 18.9361 12.667 18.8482 12.5697C18.7604 12.4724 18.6836 12.2915 18.6397 12.0134L16.9386 3.04501L15.2484 11.9995C15.1935 12.2776 15.1276 12.4583 15.0398 12.5558C14.952 12.6533 14.7983 12.6948 14.6006 12.6948L13.657 12.6947ZM27.7605 13.07C27.1913 13.0708 26.624 12.9868 26.0702 12.8198C25.5215 12.6529 25.0934 12.4721 24.8081 12.2634C24.6324 12.1383 24.5118 11.9992 24.4679 11.874C24.4251 11.7512 24.4027 11.6187 24.402 11.4845V10.7759C24.402 10.4839 24.4898 10.3448 24.6544 10.3448C24.7216 10.3451 24.7884 10.3592 24.852 10.3866C24.9179 10.4144 25.0166 10.47 25.1264 10.5256C25.5141 10.7416 25.9188 10.9047 26.3337 11.0122C26.7636 11.1228 27.2012 11.1787 27.6398 11.1791C28.3312 11.1791 28.8691 11.0262 29.2423 10.7203C29.421 10.5836 29.5681 10.3894 29.6683 10.1574C29.7686 9.92539 29.8186 9.66386 29.8132 9.39943C29.817 9.22043 29.7928 9.04224 29.742 8.87517C29.6911 8.70811 29.6146 8.55548 29.5169 8.42612C29.3193 8.16193 28.946 7.9254 28.4084 7.70285L26.8166 7.07727C26.0153 6.75752 25.4227 6.28477 25.0605 5.65895C24.7072 5.0819 24.5143 4.3731 24.5118 3.64278C24.5029 3.10441 24.605 2.57241 24.8081 2.09936C25.0041 1.65203 25.2737 1.26323 25.5986 0.959222C25.9407 0.631138 26.3276 0.385934 26.74 0.235955C27.1893 0.0721232 27.6551 -0.0073807 28.1226 -2.03321e-05C28.3685 -0.00227797 28.6141 0.0163089 28.858 0.0556156C29.1105 0.0973425 29.3411 0.152978 29.5714 0.208535C29.791 0.27808 29.9994 0.347545 30.197 0.431079C30.3572 0.49384 30.5117 0.577727 30.658 0.681361C30.7872 0.763921 30.8999 0.882835 30.9873 1.02901C31.0586 1.16431 31.0933 1.32537 31.086 1.48784V2.14133C31.086 2.43334 30.9982 2.58641 30.8335 2.58641C30.7457 2.58641 30.603 2.53078 30.4165 2.41951C29.7908 2.05798 29.0884 1.87721 28.3092 1.87721C27.6835 1.87721 27.1897 2.00232 26.8494 2.26667C26.5092 2.53102 26.3336 2.9343 26.3336 3.50417C26.3306 3.6888 26.3584 3.87216 26.4151 4.04227C26.4718 4.21238 26.5563 4.36542 26.6629 4.49139C26.8824 4.75558 27.2885 5.01977 27.8702 5.25614L29.4287 5.88149C30.2192 6.20132 30.7897 6.64625 31.1299 7.21628C31.4649 7.77561 31.6426 8.46084 31.6348 9.1629C31.6404 9.72138 31.5427 10.2738 31.3494 10.7758C31.1547 11.2517 30.8814 11.669 30.5482 11.9994C30.1859 12.3567 29.7721 12.6213 29.3299 12.7783C28.8215 12.9764 28.2923 13.0748 27.7604 13.0703L27.7605 13.07Z" fill="#252F3E"/>
<path d="M29.8348 19.8274C26.2239 23.2062 20.9776 24.9998 16.4667 24.9998C10.1448 25.0001 4.44857 22.0385 0.146329 17.1163C-0.193898 16.7269 0.113392 16.1987 0.519493 16.5043C5.17307 19.9248 10.9133 21.9964 16.8509 21.9964C20.857 21.9964 25.2581 20.9393 29.3081 18.7706C29.9118 18.4229 30.4276 19.2713 29.8351 19.8276L29.8348 19.8274Z" fill="#FF9900"/>
<path d="M31.3384 17.6585C30.8775 16.9076 28.2873 17.297 27.1129 17.4777C26.7615 17.5334 26.7068 17.1439 27.025 16.8521C29.0884 15.0167 32.4798 15.545 32.875 16.1569C33.2702 16.7825 32.7652 21.079 30.8335 23.1369C30.5372 23.4567 30.2518 23.2898 30.3835 22.8727C30.8226 21.4961 31.7994 18.3954 31.3384 17.6585Z" fill="#FF9900"/>
</g>
<defs>
<clipPath id="clip0_75_59">
<rect width="33" height="25" fill="white"/>
</clipPath>
</defs>
</svg>
