<svg width="40" height="40" viewBox="0 0 40 40" fill="none" xmlns="http://www.w3.org/2000/svg">
<path d="M11.1515 27.1513C10.6829 27.62 10.6829 28.3796 11.1515 28.8483C11.6201 29.3169 12.3799 29.3169 12.8485 28.8483L11.1515 27.1513ZM20.8485 20.8483C21.3171 20.3796 21.3171 19.62 20.8485 19.1513C20.3798 18.6827 19.6202 18.6827 19.1515 19.1513L20.8485 20.8483ZM19.1515 19.1513C18.6829 19.62 18.6829 20.3796 19.1515 20.8483C19.6202 21.3169 20.3798 21.3169 20.8485 20.8483L19.1515 19.1513ZM28.8485 12.8483C29.3171 12.3797 29.3171 11.6199 28.8485 11.1513C28.3798 10.6826 27.6202 10.6826 27.1515 11.1513L28.8485 12.8483ZM20.8485 19.1513C20.3798 18.6827 19.6202 18.6827 19.1515 19.1513C18.6829 19.62 18.6829 20.3796 19.1515 20.8483L20.8485 19.1513ZM27.1515 28.8483C27.6202 29.3169 28.3798 29.3169 28.8485 28.8483C29.3171 28.3796 29.3171 27.62 28.8485 27.1513L27.1515 28.8483ZM19.1515 20.8483C19.6202 21.3169 20.3798 21.3169 20.8485 20.8483C21.3171 20.3796 21.3171 19.62 20.8485 19.1513L19.1515 20.8483ZM12.8485 11.1513C12.3799 10.6826 11.6201 10.6826 11.1515 11.1513C10.6829 11.6199 10.6829 12.3797 11.1515 12.8483L12.8485 11.1513ZM12.8485 28.8483L20.8485 20.8483L19.1515 19.1513L11.1515 27.1513L12.8485 28.8483ZM20.8485 20.8483L28.8485 12.8483L27.1515 11.1513L19.1515 19.1513L20.8485 20.8483ZM19.1515 20.8483L27.1515 28.8483L28.8485 27.1513L20.8485 19.1513L19.1515 20.8483ZM20.8485 19.1513L12.8485 11.1513L11.1515 12.8483L19.1515 20.8483L20.8485 19.1513Z" fill="white"/>
</svg>
