<svg width="20" height="20" viewBox="0 0 20 20" fill="none" xmlns="http://www.w3.org/2000/svg">
<g clip-path="url(#clip0_1_791)">
<path d="M8.23181 15.1017C8.46398 15.334 8.73965 15.5183 9.04307 15.644C9.34649 15.7697 9.67171 15.8345 10.0001 15.8345C10.3286 15.8345 10.6538 15.7697 10.9572 15.644C11.2606 15.5183 11.5363 15.334 11.7685 15.1017L14.4443 12.4258C14.5878 12.2672 14.6647 12.0594 14.6592 11.8455C14.6538 11.6317 14.5662 11.4282 14.4148 11.2771C14.2634 11.126 14.0597 11.0389 13.8458 11.0338C13.632 11.0288 13.4243 11.1062 13.266 11.25L10.8276 13.6892L10.8335 0.833333C10.8335 0.61232 10.7457 0.400358 10.5894 0.244078C10.4331 0.0877974 10.2212 0 10.0001 0V0C9.77913 0 9.56717 0.0877974 9.41089 0.244078C9.25461 0.400358 9.16681 0.61232 9.16681 0.833333L9.15931 13.6733L6.73431 11.25C6.57795 11.0937 6.36591 11.006 6.14485 11.0061C5.92379 11.0062 5.71182 11.094 5.55556 11.2504C5.39931 11.4068 5.31157 11.6188 5.31165 11.8399C5.31172 12.0609 5.39961 12.2729 5.55598 12.4292L8.23181 15.1017Z" fill="#FCFCFD"/>
<path d="M19.1667 13.333C18.9457 13.333 18.7337 13.4208 18.5774 13.5771C18.4211 13.7334 18.3333 13.9453 18.3333 14.1663V17.4997C18.3333 17.7207 18.2455 17.9326 18.0893 18.0889C17.933 18.2452 17.721 18.333 17.5 18.333H2.5C2.27899 18.333 2.06702 18.2452 1.91074 18.0889C1.75446 17.9326 1.66667 17.7207 1.66667 17.4997V14.1663C1.66667 13.9453 1.57887 13.7334 1.42259 13.5771C1.26631 13.4208 1.05435 13.333 0.833333 13.333V13.333C0.61232 13.333 0.400358 13.4208 0.244078 13.5771C0.0877974 13.7334 0 13.9453 0 14.1663L0 17.4997C0 18.1627 0.263392 18.7986 0.732233 19.2674C1.20107 19.7363 1.83696 19.9997 2.5 19.9997H17.5C18.163 19.9997 18.7989 19.7363 19.2678 19.2674C19.7366 18.7986 20 18.1627 20 17.4997V14.1663C20 13.9453 19.9122 13.7334 19.7559 13.5771C19.5996 13.4208 19.3877 13.333 19.1667 13.333Z" fill="#FCFCFD"/>
</g>
<defs>
<clipPath id="clip0_1_791">
<rect width="20" height="20" fill="white"/>
</clipPath>
</defs>
</svg>
