<svg width="44" height="44" viewBox="0 0 44 44" fill="none" xmlns="http://www.w3.org/2000/svg">
<g clip-path="url(#clip0_1_719)">
<path d="M4.12512 30.9375H13.5576L12.5264 35.0625H12.3751C11.4638 35.0636 10.5901 35.4261 9.94565 36.0705C9.30123 36.7149 8.93871 37.5886 8.93762 38.5C8.93762 38.6823 9.01005 38.8572 9.13899 38.9861C9.26792 39.1151 9.44279 39.1875 9.62512 39.1875H14.5648C14.8025 40.267 15.3745 41.244 16.1995 41.9796C17.0245 42.7152 18.0604 43.1719 19.16 43.2848C20.2595 43.3976 21.3666 43.1609 22.3239 42.6082C23.2811 42.0555 24.0396 41.215 24.4916 40.2064L24.647 39.8592C25.0135 39.0446 25.6076 38.3533 26.3576 37.8683C27.1077 37.3833 27.9819 37.1253 28.8751 37.1253C29.7683 37.1253 30.6425 37.3833 31.3926 37.8683C32.1427 38.3533 32.7367 39.0446 33.1032 39.8592L33.2586 40.2071C33.7759 41.3679 34.6965 42.3019 35.8498 42.8358C37.0031 43.3698 38.3109 43.4674 39.5307 43.1107C40.7505 42.754 41.7996 41.9671 42.4835 40.8959C43.1675 39.8247 43.4398 38.5418 43.2501 37.2852V37.2659L41.9273 30.1008C41.7835 29.1487 41.3908 28.2514 40.7891 27.4997C40.1873 26.748 39.3977 26.1685 38.5001 25.8197V24.75C38.4992 24.4616 38.4375 24.1766 38.3191 23.9136C38.2006 23.6506 38.028 23.4156 37.8126 23.2237V4.125C37.8115 3.21365 37.449 2.33995 36.8046 1.69553C36.1602 1.05111 35.2865 0.688592 34.3751 0.6875H4.12512C3.21378 0.688592 2.34007 1.05111 1.69565 1.69553C1.05123 2.33995 0.688714 3.21365 0.687622 4.125V27.5C0.688714 28.4113 1.05123 29.2851 1.69565 29.9295C2.34007 30.5739 3.21378 30.9364 4.12512 30.9375ZM14.9739 30.9375H15.6682L14.912 35.0625H13.9426L14.9739 30.9375ZM12.3751 36.4375H14.6562L14.5002 37.2845C14.4737 37.4595 14.456 37.6357 14.4472 37.8125H10.4302C10.5729 37.4106 10.8364 37.0628 11.1846 36.8166C11.5328 36.5704 11.9487 36.438 12.3751 36.4375ZM40.5722 30.3304L41.8929 37.5038C41.9762 38.0504 41.9404 38.6086 41.7879 39.1401C41.6354 39.6715 41.3699 40.1638 41.0095 40.5831C40.5831 41.0797 40.0382 41.4606 39.4254 41.6906C38.8125 41.9206 38.1516 41.9922 37.5037 41.8987C36.8559 41.8053 36.2421 41.5498 35.7192 41.1561C35.1964 40.7623 34.7813 40.2429 34.5126 39.6461L34.3579 39.2982C33.883 38.2411 33.1127 37.3438 32.1398 36.7142C31.1668 36.0847 30.0326 35.7498 28.8737 35.7498C27.7149 35.7498 26.5807 36.0847 25.6077 36.7142C24.6348 37.3438 23.8645 38.2411 23.3896 39.2982L23.2349 39.6454C22.966 40.2417 22.5511 40.7606 22.0285 41.1541C21.5059 41.5475 20.8926 41.8028 20.2451 41.8963C19.5977 41.9898 18.9372 41.9185 18.3246 41.6889C17.7121 41.4594 17.1673 41.0791 16.7407 40.5831C16.381 40.1654 16.1157 39.675 15.9629 39.1453C15.81 38.6157 15.7733 38.0593 15.8552 37.5141L17.1814 30.3105C17.3303 29.3321 17.8266 28.44 18.5794 27.7976C19.3323 27.1553 20.2913 26.8055 21.281 26.8125H36.4692C37.462 26.807 38.4235 27.1597 39.1771 27.8059C39.9308 28.4521 40.4262 29.3485 40.5722 30.3304ZM23.3751 25.4375H21.281C21.0617 25.4388 20.8427 25.4531 20.6251 25.4801V24.75C20.6251 24.5677 20.6976 24.3928 20.8265 24.2639C20.9554 24.1349 21.1303 24.0625 21.3126 24.0625H22.6876C22.87 24.0625 23.0448 24.1349 23.1738 24.2639C23.3027 24.3928 23.3751 24.5677 23.3751 24.75V25.4375ZM36.4692 25.4375H34.3751V24.75C34.3751 24.5677 34.4476 24.3928 34.5765 24.2639C34.7054 24.1349 34.8803 24.0625 35.0626 24.0625H36.4376C36.62 24.0625 36.7948 24.1349 36.9238 24.2639C37.0527 24.3928 37.1251 24.5677 37.1251 24.75V25.4801C36.9075 25.4531 36.6885 25.4388 36.4692 25.4375ZM2.06262 4.125C2.06262 3.57799 2.27992 3.05339 2.66671 2.66659C3.05351 2.2798 3.57811 2.0625 4.12512 2.0625H34.3751C34.9221 2.0625 35.4467 2.2798 35.8335 2.66659C36.2203 3.05339 36.4376 3.57799 36.4376 4.125V22.6875H35.0626V4.125C35.0626 3.94266 34.9902 3.7678 34.8613 3.63886C34.7323 3.50993 34.5575 3.4375 34.3751 3.4375H4.12512C3.94279 3.4375 3.76792 3.50993 3.63899 3.63886C3.51005 3.7678 3.43762 3.94266 3.43762 4.125V24.75C3.43762 24.9323 3.51005 25.1072 3.63899 25.2361C3.76792 25.3651 3.94279 25.4375 4.12512 25.4375H17.8751V24.0625H4.81262V4.8125H33.6876V23.2237C33.4722 23.4156 33.2996 23.6506 33.1812 23.9136C33.0627 24.1766 33.001 24.4616 33.0001 24.75V25.4375H29.5626C29.5626 24.8905 29.3453 24.3659 28.9585 23.9791C28.5717 23.5923 28.0471 23.375 27.5001 23.375H27.1564C27.0652 23.375 26.9778 23.3388 26.9133 23.2743C26.8488 23.2099 26.8126 23.1224 26.8126 23.0312C26.8126 22.9401 26.8488 22.8526 26.9133 22.7882C26.9778 22.7237 27.0652 22.6875 27.1564 22.6875H28.8751C29.6045 22.6875 30.3039 22.3978 30.8197 21.882C31.3354 21.3663 31.6251 20.6668 31.6251 19.9375V19.25H30.2501V19.9375C30.2501 20.3022 30.1053 20.6519 29.8474 20.9098C29.5895 21.1676 29.2398 21.3125 28.8751 21.3125H27.1564C26.7005 21.3125 26.2634 21.4936 25.941 21.8159C25.6187 22.1382 25.4376 22.5754 25.4376 23.0312C25.4376 23.4871 25.6187 23.9243 25.941 24.2466C26.2634 24.5689 26.7005 24.75 27.1564 24.75H27.5001C27.6825 24.75 27.8573 24.8224 27.9863 24.9514C28.1152 25.0803 28.1876 25.2552 28.1876 25.4375H24.7501V24.75C24.7501 24.203 24.5328 23.6784 24.146 23.2916C23.7592 22.9048 23.2346 22.6875 22.6876 22.6875H21.3126C20.7656 22.6875 20.241 22.9048 19.8542 23.2916C19.4674 23.6784 19.2501 24.203 19.2501 24.75V25.8191C18.4386 26.133 17.714 26.6367 17.1369 27.2879C16.5598 27.9392 16.147 28.7191 15.9329 29.5625H4.12512C3.57811 29.5625 3.05351 29.3452 2.66671 28.9584C2.27992 28.5716 2.06262 28.047 2.06262 27.5V4.125Z" fill="white"/>
<path d="M26.1251 30.25H24.7501V28.875C24.7501 28.6927 24.6777 28.5178 24.5488 28.3889C24.4198 28.2599 24.245 28.1875 24.0626 28.1875H21.3126C21.1303 28.1875 20.9554 28.2599 20.8265 28.3889C20.6976 28.5178 20.6251 28.6927 20.6251 28.875V30.25H19.2501C19.0678 30.25 18.8929 30.3224 18.764 30.4514C18.6351 30.5803 18.5626 30.7552 18.5626 30.9375V33.6875C18.5626 33.8698 18.6351 34.0447 18.764 34.1736C18.8929 34.3026 19.0678 34.375 19.2501 34.375H20.6251V35.75C20.6251 35.9323 20.6976 36.1072 20.8265 36.2361C20.9554 36.3651 21.1303 36.4375 21.3126 36.4375H24.0626C24.245 36.4375 24.4198 36.3651 24.5488 36.2361C24.6777 36.1072 24.7501 35.9323 24.7501 35.75V34.375H26.1251C26.3075 34.375 26.4823 34.3026 26.6113 34.1736C26.7402 34.0447 26.8126 33.8698 26.8126 33.6875V30.9375C26.8126 30.7552 26.7402 30.5803 26.6113 30.4514C26.4823 30.3224 26.3075 30.25 26.1251 30.25ZM25.4376 33H24.0626C23.8803 33 23.7054 33.0724 23.5765 33.2014C23.4476 33.3303 23.3751 33.5052 23.3751 33.6875V35.0625H22.0001V33.6875C22.0001 33.5052 21.9277 33.3303 21.7988 33.2014C21.6698 33.0724 21.495 33 21.3126 33H19.9376V31.625H21.3126C21.495 31.625 21.6698 31.5526 21.7988 31.4236C21.9277 31.2947 22.0001 31.1198 22.0001 30.9375V29.5625H23.3751V30.9375C23.3751 31.1198 23.4476 31.2947 23.5765 31.4236C23.7054 31.5526 23.8803 31.625 24.0626 31.625H25.4376V33ZM33.0001 29.5625C33.002 29.8777 33.0771 30.1881 33.2194 30.4693C32.9382 30.327 32.6278 30.2519 32.3126 30.25C31.7656 30.25 31.241 30.4673 30.8542 30.8541C30.4674 31.2409 30.2501 31.7655 30.2501 32.3125C30.2501 32.8595 30.4674 33.3841 30.8542 33.7709C31.241 34.1577 31.7656 34.375 32.3126 34.375C32.6278 34.3731 32.9382 34.298 33.2194 34.1557C33.0771 34.4369 33.002 34.7473 33.0001 35.0625C33.0001 35.6095 33.2174 36.1341 33.6042 36.5209C33.991 36.9077 34.5156 37.125 35.0626 37.125C35.6096 37.125 36.1342 36.9077 36.521 36.5209C36.9078 36.1341 37.1251 35.6095 37.1251 35.0625C37.1232 34.7473 37.0481 34.4369 36.9058 34.1557C37.187 34.298 37.4974 34.3731 37.8126 34.375C38.3596 34.375 38.8842 34.1577 39.271 33.7709C39.6578 33.3841 39.8751 32.8595 39.8751 32.3125C39.8751 31.7655 39.6578 31.2409 39.271 30.8541C38.8842 30.4673 38.3596 30.25 37.8126 30.25C37.4974 30.2519 37.187 30.327 36.9058 30.4693C37.0481 30.1881 37.1232 29.8777 37.1251 29.5625C37.1251 29.0155 36.9078 28.4909 36.521 28.1041C36.1342 27.7173 35.6096 27.5 35.0626 27.5C34.5156 27.5 33.991 27.7173 33.6042 28.1041C33.2174 28.4909 33.0001 29.0155 33.0001 29.5625ZM34.1558 31.4057C34.4363 31.5498 34.7472 31.625 35.0626 31.625C35.378 31.625 35.6889 31.5498 35.9694 31.4057C35.8253 31.6862 35.7501 31.9971 35.7501 32.3125C35.7501 32.6279 35.8253 32.9388 35.9694 33.2193C35.6889 33.0752 35.378 33 35.0626 33C34.7472 33 34.4363 33.0752 34.1558 33.2193C34.3 32.9388 34.3752 32.6279 34.3752 32.3125C34.3752 31.9971 34.3 31.6862 34.1558 31.4057ZM32.3126 33C32.1766 33 32.0437 32.9597 31.9307 32.8841C31.8176 32.8086 31.7295 32.7012 31.6775 32.5756C31.6254 32.45 31.6118 32.3117 31.6383 32.1784C31.6649 32.045 31.7303 31.9225 31.8265 31.8264C31.9226 31.7302 32.0451 31.6647 32.1785 31.6382C32.3119 31.6117 32.4501 31.6253 32.5757 31.6773C32.7013 31.7294 32.8087 31.8175 32.8843 31.9305C32.9598 32.0436 33.0001 32.1765 33.0001 32.3125C33.0001 32.4948 32.9277 32.6697 32.7988 32.7986C32.6698 32.9276 32.495 33 32.3126 33ZM35.0626 35.75C34.9266 35.75 34.7937 35.7097 34.6807 35.6341C34.5676 35.5586 34.4795 35.4512 34.4275 35.3256C34.3754 35.2 34.3618 35.0617 34.3883 34.9284C34.4149 34.795 34.4803 34.6725 34.5765 34.5764C34.6726 34.4802 34.7951 34.4147 34.9285 34.3882C35.0619 34.3617 35.2001 34.3753 35.3257 34.4273C35.4513 34.4794 35.5587 34.5675 35.6343 34.6805C35.7098 34.7936 35.7501 34.9265 35.7501 35.0625C35.7501 35.2448 35.6777 35.4197 35.5488 35.5486C35.4198 35.6776 35.245 35.75 35.0626 35.75ZM37.8126 31.625C37.9486 31.625 38.0815 31.6653 38.1946 31.7409C38.3076 31.8164 38.3958 31.9238 38.4478 32.0494C38.4998 32.175 38.5134 32.3133 38.4869 32.4466C38.4604 32.58 38.3949 32.7025 38.2988 32.7986C38.2026 32.8948 38.0801 32.9603 37.9467 32.9868C37.8134 33.0133 37.6751 32.9997 37.5495 32.9477C37.4239 32.8956 37.3165 32.8075 37.241 32.6945C37.1654 32.5814 37.1251 32.4485 37.1251 32.3125C37.1251 32.1302 37.1976 31.9553 37.3265 31.8264C37.4554 31.6974 37.6303 31.625 37.8126 31.625ZM35.7501 29.5625C35.7501 29.6985 35.7098 29.8314 35.6343 29.9445C35.5587 30.0575 35.4513 30.1456 35.3257 30.1977C35.2001 30.2497 35.0619 30.2633 34.9285 30.2368C34.7951 30.2103 34.6726 30.1448 34.5765 30.0486C34.4803 29.9525 34.4149 29.83 34.3883 29.6966C34.3618 29.5633 34.3754 29.425 34.4275 29.2994C34.4795 29.1738 34.5676 29.0664 34.6807 28.9909C34.7937 28.9153 34.9266 28.875 35.0626 28.875C35.245 28.875 35.4198 28.9474 35.5488 29.0764C35.6777 29.2053 35.7501 29.3802 35.7501 29.5625ZM29.5626 19.25V8.25C29.5626 8.06766 29.4902 7.8928 29.3613 7.76386C29.2323 7.63493 29.0575 7.5625 28.8751 7.5625H9.62512C9.44279 7.5625 9.26792 7.63493 9.13899 7.76386C9.01006 7.8928 8.93762 8.06766 8.93762 8.25V19.25C8.93762 19.4323 9.01006 19.6072 9.13899 19.7361C9.26792 19.8651 9.44279 19.9375 9.62512 19.9375H28.8751C29.0575 19.9375 29.2323 19.8651 29.3613 19.7361C29.4902 19.6072 29.5626 19.4323 29.5626 19.25ZM28.1876 18.5625H10.3126V8.9375H28.1876V18.5625Z" fill="white"/>
<path d="M16.0142 16.2985L16.9863 15.3264L15.4098 13.75L16.9863 12.1735L16.0142 11.2014L13.9517 13.2639C13.8228 13.3928 13.7504 13.5677 13.7504 13.75C13.7504 13.9323 13.8228 14.1071 13.9517 14.236L16.0142 16.2985ZM22.4863 16.2985L24.5488 14.236C24.6777 14.1071 24.7501 13.9323 24.7501 13.75C24.7501 13.5677 24.6777 13.3928 24.5488 13.2639L22.4863 11.2014L21.5142 12.1735L23.0906 13.75L21.5142 15.3264L22.4863 16.2985ZM17.9096 16.282L19.9742 10.0952L21.2783 10.5304L19.2138 16.7172L17.9096 16.282Z" fill="white"/>
</g>
<defs>
<clipPath id="clip0_1_719">
<rect width="44" height="44" fill="white"/>
</clipPath>
</defs>
</svg>
