<svg width="68" height="65" viewBox="0 0 68 65" fill="none" xmlns="http://www.w3.org/2000/svg">
<path opacity="0.5" d="M67.5 26.5604C67.5 48.2233 51.6181 65 30.1047 65C8.59123 65 0.5 59.9905 0.5 38.3276C0.5 16.6647 8.59123 11.6551 30.1047 11.6551C44.907 12.4399 67.5 4.89748 67.5 26.5604Z" fill="#8851F8"/>
<g clip-path="url(#clip0_1_943)">
<path d="M51.7539 8.01562H7.24609C4.63448 8.01562 2.5 10.1407 2.5 12.7617V41.2383C2.5 43.8602 4.63585 45.9844 7.24609 45.9844H51.7539C54.3655 45.9844 56.5 43.8593 56.5 41.2383V12.7617C56.5 10.1401 54.3645 8.01562 51.7539 8.01562ZM51.0251 11.1797L30.726 31.5451C30.1075 32.1654 28.8928 32.1659 28.274 31.5451L7.97488 11.1797H51.0251ZM5.66406 40.6566V13.3434L19.2764 27L5.66406 40.6566ZM7.97488 42.8203L21.5101 29.241L26.0331 33.7788C27.8866 35.6383 31.1141 35.6376 32.967 33.7788L37.49 29.2411L51.0251 42.8203H7.97488ZM53.3359 40.6566L39.7236 27L53.3359 13.3434V40.6566Z" fill="white"/>
</g>
<defs>
<clipPath id="clip0_1_943">
<rect width="54" height="54" fill="white" transform="translate(2.5)"/>
</clipPath>
</defs>
</svg>
