<svg width="38" height="20" viewBox="0 0 38 20" fill="none" xmlns="http://www.w3.org/2000/svg">
<g clip-path="url(#clip0_1_915)">
<path d="M18.5661 19.329C28.8198 19.329 37.1322 15.0021 37.1322 9.66452C37.1322 4.32695 28.8198 0 18.5661 0C8.31232 0 0 4.32695 0 9.66452C0 15.0021 8.31232 19.329 18.5661 19.329Z" fill="#8993BE"/>
<path fill-rule="evenodd" clip-rule="evenodd" d="M5.21411 15.3867L7.24884 5.08634H11.9537C13.9883 5.21355 15.0057 6.23077 15.0057 8.01122C15.0057 11.0632 12.5896 12.8435 10.4277 12.7163H8.13899L7.63031 15.3867H5.21411ZM8.64753 10.8089L9.28342 6.99386H10.9365C11.8267 6.99386 12.4624 7.37534 12.4624 8.13829C12.3354 10.3002 11.318 10.6817 10.1736 10.8089H8.64753ZM14.533 12.7163L16.5676 2.41602H18.9838L18.4751 5.08634H20.7639C22.7987 5.21355 23.5616 6.23077 23.3073 7.50254L22.4172 12.7163H19.8739L20.7641 8.01122C20.8911 7.37534 20.8911 6.99386 20.0011 6.99386H18.0936L16.9492 12.7163H14.533ZM22.2543 15.3867L24.2889 5.08634H28.9939C31.0287 5.21355 32.046 6.23077 32.046 8.01122C32.046 11.0632 29.6298 12.8435 27.468 12.7163H25.179L24.6703 15.3867H22.2543ZM25.6876 10.8089L26.3235 6.99386H27.9767C28.8669 6.99386 29.5026 7.37534 29.5026 8.13829C29.3755 10.3002 28.3582 10.6817 27.2138 10.8089H25.6877H25.6876Z" fill="#232531"/>
</g>
<defs>
<clipPath id="clip0_1_915">
<rect width="37.1322" height="19.4424" fill="white"/>
</clipPath>
</defs>
</svg>
