<svg width="318" height="192" viewBox="0 0 318 192" fill="none" xmlns="http://www.w3.org/2000/svg">
<path opacity="0.3" d="M234.666 6C234.666 8.94552 237.054 11.3333 240 11.3333C242.945 11.3333 245.333 8.94552 245.333 6C245.333 3.05448 242.945 0.666667 240 0.666667C237.054 0.666667 234.666 3.05448 234.666 6ZM0.801548 153.52C0.260248 153.629 -0.0897126 154.157 0.0198894 154.698L1.80596 163.519C1.91556 164.061 2.44322 164.411 2.98452 164.301C3.52582 164.191 3.87578 163.664 3.76618 163.123L2.17856 155.282L10.0194 153.694C10.5607 153.584 10.9107 153.057 10.8011 152.515C10.6915 151.974 10.1638 151.624 9.62254 151.734L0.801548 153.52ZM11.6116 162.212C12.0911 162.486 12.702 162.32 12.9759 161.84C13.2499 161.361 13.0832 160.75 12.6036 160.476L11.6116 162.212ZM19.8938 164.44C19.4032 164.186 18.7998 164.378 18.5462 164.869C18.2925 165.36 18.4846 165.963 18.9752 166.216L19.8938 164.44ZM42.9235 176.734C43.442 176.924 44.0166 176.658 44.207 176.14C44.3973 175.622 44.1314 175.047 43.6129 174.857L42.9235 176.734ZM51.4654 177.571C50.9401 177.4 50.376 177.688 50.2055 178.213C50.0351 178.738 50.3227 179.302 50.848 179.473L51.4654 177.571ZM76.1432 186.118C76.6843 186.229 77.2126 185.88 77.3233 185.339C77.434 184.798 77.0851 184.27 76.544 184.159L76.1432 186.118ZM84.711 185.686C84.1665 185.594 83.6502 185.96 83.5577 186.505C83.4653 187.049 83.8317 187.566 84.3762 187.658L84.711 185.686ZM110.345 190.741C110.896 190.779 111.374 190.364 111.412 189.813C111.451 189.262 111.035 188.784 110.484 188.746L110.345 190.741ZM118.778 189.201C118.226 189.179 117.76 189.609 117.738 190.16C117.716 190.712 118.145 191.178 118.697 191.2L118.778 189.201ZM144.849 191.092C145.401 191.066 145.827 190.597 145.8 190.046C145.774 189.494 145.306 189.068 144.754 189.094L144.849 191.092ZM153.04 188.591C152.489 188.632 152.076 189.111 152.117 189.662C152.157 190.213 152.637 190.626 153.188 190.586L153.04 188.591ZM179.161 187.602C179.706 187.517 180.08 187.006 179.995 186.46C179.91 185.914 179.399 185.541 178.853 185.626L179.161 187.602ZM187.067 184.242C186.523 184.34 186.163 184.861 186.261 185.404C186.36 185.948 186.88 186.308 187.424 186.21L187.067 184.242ZM212.927 180.539C213.461 180.398 213.78 179.851 213.639 179.317C213.498 178.783 212.95 178.464 212.416 178.605L212.927 180.539ZM220.432 176.377C219.902 176.532 219.597 177.087 219.752 177.617C219.907 178.148 220.462 178.452 220.992 178.297L220.432 176.377ZM245.769 169.917C246.284 169.718 246.539 169.138 246.34 168.624C246.14 168.109 245.561 167.853 245.046 168.053L245.769 169.917ZM252.761 164.927C252.252 165.143 252.014 165.729 252.229 166.238C252.445 166.747 253.031 166.985 253.54 166.769L252.761 164.927ZM277.068 155.296C277.549 155.024 277.72 154.415 277.449 153.933C277.178 153.452 276.568 153.282 276.087 153.553L277.068 155.296ZM283.219 149.321C282.751 149.614 282.609 150.231 282.902 150.699C283.195 151.167 283.812 151.309 284.28 151.016L283.219 149.321ZM305.03 135.02C305.422 134.631 305.423 133.998 305.034 133.606C304.644 133.215 304.011 133.213 303.62 133.602L305.03 135.02ZM309.086 127.452C308.749 127.89 308.831 128.518 309.268 128.855C309.706 129.192 310.334 129.11 310.671 128.673L309.086 127.452ZM315.884 103.55C315.635 103.057 315.033 102.86 314.54 103.109C314.048 103.359 313.85 103.96 314.1 104.453L315.884 103.55ZM309.156 98.363C309.575 98.7227 310.207 98.6746 310.566 98.2555C310.926 97.8364 310.878 97.2051 310.459 96.8454L309.156 98.363ZM286.564 85.7973C286.033 85.647 285.48 85.956 285.33 86.4874C285.18 87.0189 285.489 87.5715 286.02 87.7218L286.564 85.7973ZM278.085 85.8087C278.627 85.9168 279.153 85.5654 279.261 85.0238C279.369 84.4822 279.018 83.9555 278.476 83.8474L278.085 85.8087ZM252.601 82.1057C252.05 82.1425 251.633 82.619 251.67 83.17C251.707 83.7211 252.183 84.138 252.734 84.1013L252.601 82.1057ZM244.613 85.0068C245.158 84.921 245.531 84.4092 245.445 83.8636C245.36 83.318 244.848 82.9453 244.302 83.031L244.613 85.0068ZM219.5 90.776C219.005 91.02 218.801 91.6194 219.045 92.1149C219.289 92.6104 219.888 92.8142 220.384 92.5702L219.5 90.776ZM213.313 96.5541C213.778 96.2555 213.913 95.6368 213.614 95.1722C213.315 94.7076 212.697 94.5731 212.232 94.8717L213.313 96.5541ZM194.846 114.227C194.678 114.753 194.969 115.315 195.496 115.483C196.022 115.65 196.584 115.359 196.752 114.833L194.846 114.227ZM196.849 122.152C196.621 121.649 196.029 121.426 195.526 121.654C195.023 121.882 194.8 122.475 195.028 122.978L196.849 122.152ZM219.193 131.028C219.745 130.993 220.163 130.517 220.127 129.966C220.092 129.415 219.616 128.997 219.065 129.032L219.193 131.028ZM227.117 128.128C226.571 128.213 226.197 128.724 226.282 129.27C226.366 129.815 226.877 130.189 227.423 130.105L227.117 128.128ZM253.053 123.246C253.563 123.033 253.803 122.447 253.59 121.938C253.377 121.428 252.792 121.188 252.282 121.401L253.053 123.246ZM259.89 117.729C259.406 117.997 259.231 118.605 259.498 119.088C259.765 119.572 260.374 119.747 260.857 119.48L259.89 117.729ZM281.502 102.246C281.847 101.814 281.776 101.185 281.344 100.841C280.912 100.497 280.283 100.568 279.938 100.999L281.502 102.246ZM284.717 94.0852C284.435 94.5601 284.591 95.1736 285.066 95.4555C285.541 95.7374 286.155 95.581 286.437 95.106L284.717 94.0852ZM294.785 69.5257C294.836 68.9758 294.432 68.4885 293.882 68.4373C293.332 68.3862 292.844 68.7905 292.793 69.3404L294.785 69.5257ZM292.965 60.9533C292.994 61.5048 293.464 61.9286 294.016 61.8998C294.568 61.8711 294.991 61.4007 294.963 60.8491L292.965 60.9533ZM287.422 35.0166C287.148 34.5373 286.537 34.3712 286.058 34.6455C285.578 34.9199 285.412 35.5309 285.687 36.0102L287.422 35.0166ZM280.982 29.0814C281.326 29.5132 281.955 29.5841 282.387 29.2398C282.819 28.8955 282.89 28.2663 282.545 27.8345L280.982 29.0814ZM261.377 11.237C260.878 11.0004 260.282 11.2131 260.045 11.7121C259.809 12.2112 260.021 12.8075 260.521 13.0441L261.377 11.237ZM252.692 9.93491C253.217 10.1062 253.782 9.81942 253.953 9.29437C254.124 8.76932 253.837 8.20483 253.312 8.03353L252.692 9.93491ZM0.447284 155.333C4.11268 157.764 7.83632 160.056 11.6116 162.212L12.6036 160.476C8.86636 158.341 5.18056 156.073 1.55272 153.667L0.447284 155.333ZM18.9752 166.216C26.7812 170.253 34.7825 173.745 42.9235 176.734L43.6129 174.857C35.547 171.895 27.6224 168.436 19.8938 164.44L18.9752 166.216ZM50.848 179.473C59.1743 182.175 67.6252 184.376 76.1432 186.118L76.544 184.159C68.0955 182.43 59.717 180.248 51.4654 177.571L50.848 179.473ZM84.3762 187.658C93.0024 189.123 101.678 190.136 110.345 190.741L110.484 188.746C101.88 188.145 93.2691 187.139 84.711 185.686L84.3762 187.658ZM118.697 191.2C127.463 191.552 136.201 191.501 144.849 191.092L144.754 189.094C136.162 189.5 127.483 189.551 118.778 189.201L118.697 191.2ZM153.188 190.586C161.981 189.935 170.661 188.924 179.161 187.602L178.853 185.626C170.404 186.94 161.778 187.944 153.04 188.591L153.188 190.586ZM187.424 186.21C196.168 184.623 204.694 182.714 212.927 180.539L212.416 178.605C204.233 180.767 195.759 182.664 187.067 184.242L187.424 186.21ZM220.992 178.297C229.65 175.769 237.94 172.953 245.769 169.917L245.046 168.053C237.272 171.067 229.036 173.865 220.432 176.377L220.992 178.297ZM253.54 166.769C262.061 163.165 269.95 159.306 277.068 155.296L276.087 153.553C269.039 157.524 261.219 161.349 252.761 164.927L253.54 166.769ZM284.28 151.016C292.592 145.815 299.607 140.415 305.03 135.02L303.62 133.602C298.328 138.867 291.44 144.177 283.219 149.321L284.28 151.016ZM310.671 128.673C317.396 119.94 319.752 111.195 315.884 103.55L314.1 104.453C317.46 111.094 315.606 118.986 309.086 127.452L310.671 128.673ZM310.459 96.8454C307.521 94.3238 303.676 92.055 298.881 90.0757L298.118 91.9243C302.771 93.8449 306.419 96.0132 309.156 98.363L310.459 96.8454ZM298.881 90.0757C294.722 88.3589 290.611 86.9417 286.564 85.7973L286.02 87.7218C289.992 88.8451 294.03 90.2368 298.118 91.9243L298.881 90.0757ZM278.476 83.8474C269.399 82.0356 260.713 81.565 252.601 82.1057L252.734 84.1013C260.674 83.572 269.184 84.032 278.085 85.8087L278.476 83.8474ZM244.302 83.031C234.993 84.4941 226.618 87.2708 219.5 90.776L220.384 92.5702C227.322 89.1536 235.504 86.4384 244.613 85.0068L244.302 83.031ZM212.232 94.8717C203.109 100.736 196.885 107.809 194.846 114.227L196.752 114.833C198.592 109.042 204.384 102.294 213.313 96.5541L212.232 94.8717ZM195.028 122.978C196.33 125.849 198.998 128.086 202.995 129.485C206.98 130.881 212.344 131.468 219.193 131.028L219.065 129.032C212.372 129.462 207.3 128.874 203.656 127.598C200.022 126.325 197.867 124.395 196.849 122.152L195.028 122.978ZM227.423 130.105C231.314 129.503 235.582 128.635 240.242 127.47L239.757 125.53C235.148 126.682 230.941 127.537 227.117 128.128L227.423 130.105ZM240.242 127.47C244.799 126.331 249.069 124.911 253.053 123.246L252.282 121.401C248.394 123.026 244.22 124.414 239.757 125.53L240.242 127.47ZM260.857 119.48C269.321 114.802 276.196 108.9 281.502 102.246L279.938 100.999C274.8 107.443 268.129 113.175 259.89 117.729L260.857 119.48ZM286.437 95.106C291.195 87.0898 293.965 78.3355 294.785 69.5257L292.793 69.3404C292.001 77.858 289.322 86.3264 284.717 94.0852L286.437 95.106ZM294.963 60.8491C294.492 51.8118 291.964 42.9515 287.422 35.0166L285.687 36.0102C290.068 43.6648 292.51 52.219 292.965 60.9533L294.963 60.8491ZM282.545 27.8345C277.178 21.1042 270.107 15.3764 261.377 11.237L260.521 13.0441C268.978 17.0545 275.807 22.5919 280.982 29.0814L282.545 27.8345ZM253.312 8.03353C249.212 6.69601 244.82 5.6738 240.14 5.00991L239.859 6.99009C244.429 7.63829 248.707 8.6349 252.692 9.93491L253.312 8.03353Z" fill="white"/>
</svg>
