<svg width="32" height="33" viewBox="0 0 32 33" fill="none" xmlns="http://www.w3.org/2000/svg">
<path d="M31.6144 7.49113C31.6259 7.53347 31.6317 7.57713 31.6318 7.621V14.4388C31.6318 14.5263 31.6087 14.6123 31.5649 14.688C31.521 14.7637 31.4579 14.8265 31.382 14.87L25.6597 18.1646V24.6947C25.6597 24.8724 25.5653 25.0365 25.4112 25.126L13.4663 32.0022C13.439 32.0177 13.4092 32.0277 13.3793 32.0382C13.3682 32.0419 13.3576 32.0488 13.3458 32.0519C13.2623 32.0739 13.1745 32.0739 13.091 32.0519C13.0774 32.0482 13.0649 32.0407 13.0519 32.0357C13.0245 32.0258 12.996 32.0171 12.9699 32.0022L1.02751 25.126C0.951639 25.0824 0.888602 25.0196 0.844748 24.9439C0.800893 24.8681 0.77777 24.7822 0.77771 24.6947V4.2413C0.77771 4.19656 0.783924 4.15306 0.795109 4.11081C0.798837 4.09652 0.807536 4.08347 0.812507 4.06918C0.821828 4.04308 0.830527 4.01636 0.844198 3.99212C0.853519 3.97597 0.867189 3.96292 0.878374 3.94801C0.892666 3.92812 0.905715 3.90762 0.922492 3.89022C0.936784 3.87593 0.955425 3.86536 0.971581 3.85293C0.989601 3.83802 1.00576 3.82187 1.02626 3.81006L6.99837 0.37195C7.07398 0.328441 7.15969 0.305542 7.24692 0.305542C7.33416 0.305542 7.41986 0.328441 7.49547 0.37195L13.467 3.81006H13.4682C13.4881 3.82249 13.5049 3.83802 13.5229 3.85231C13.539 3.86474 13.5571 3.87593 13.5714 3.8896C13.5888 3.90762 13.6012 3.92812 13.6161 3.94801C13.6267 3.96292 13.6409 3.97597 13.6496 3.99212C13.6639 4.01698 13.672 4.04308 13.682 4.06918C13.6869 4.08347 13.6956 4.09652 13.6994 4.11143C13.7108 4.15377 13.7166 4.19744 13.7168 4.2413V17.0163L18.6928 14.1511V7.62038C18.6928 7.57688 18.699 7.53276 18.7102 7.49113C18.7145 7.47622 18.7226 7.46317 18.7276 7.44887C18.7375 7.42278 18.7462 7.39606 18.7599 7.37182C18.7692 7.35567 18.7829 7.34262 18.7934 7.3277C18.8084 7.30782 18.8208 7.28731 18.8382 7.26992C18.8525 7.25562 18.8705 7.24506 18.8867 7.23263C18.9053 7.21772 18.9215 7.20156 18.9413 7.18976L24.9141 3.75165C24.9897 3.70808 25.0754 3.68515 25.1626 3.68515C25.2499 3.68515 25.3356 3.70808 25.4112 3.75165L31.3827 7.18976C31.4038 7.20219 31.4199 7.21772 31.4386 7.23201C31.4541 7.24444 31.4721 7.25562 31.4864 7.26929C31.5038 7.28731 31.5163 7.30782 31.5312 7.3277C31.5424 7.34262 31.556 7.35567 31.5647 7.37182C31.579 7.39606 31.5871 7.42278 31.597 7.44887C31.6026 7.46317 31.6107 7.47622 31.6144 7.49113ZM30.6364 14.1511V8.48161L28.5467 9.68461L25.6597 11.3468V17.0163L30.6364 14.1511ZM24.6649 24.407V18.7338L21.8252 20.3556L13.7168 24.6947L13.7161 30.7103L24.6649 24.407ZM1.77316 5.10191V24.407L12.7207 30.7097V24.9843L7.00148 21.7475L6.99961 21.7463L6.99713 21.745C6.97786 21.7338 6.96171 21.7177 6.94369 21.704C6.92815 21.6916 6.91013 21.6816 6.89646 21.668L6.89522 21.6661C6.87906 21.6506 6.86788 21.6313 6.85421 21.6139C6.84178 21.5971 6.82687 21.5828 6.81693 21.5654L6.8163 21.5636C6.80512 21.5449 6.79828 21.5226 6.79021 21.5014C6.78213 21.4828 6.77156 21.4654 6.76659 21.4455C6.76038 21.4219 6.75914 21.3964 6.75665 21.3722C6.75417 21.3535 6.74919 21.3349 6.74919 21.3163V7.96711L3.86287 6.30429L1.77316 5.10191ZM7.24754 1.37735L2.27213 4.2413L7.2463 7.10525L12.2211 4.24068L7.2463 1.37735H7.24754ZM9.83498 19.2508L12.7213 17.5892V5.10191L10.6316 6.30491L7.74465 7.96711V20.4544L9.83498 19.2508ZM25.1626 4.75705L20.1878 7.621L25.1626 10.4849L30.1368 7.62038L25.1626 4.75705ZM24.6649 11.3468L21.7779 9.68461L19.6882 8.48161V14.1511L22.5746 15.8127L24.6649 17.0163V11.3468ZM13.2178 24.1231L20.5147 19.9573L24.1622 17.8757L19.1911 15.0136L13.4676 18.3088L8.25108 21.3119L13.2178 24.1231Z" fill="#FF2D20"/>
</svg>
