<svg width="36" height="36" viewBox="0 0 36 36" fill="none" xmlns="http://www.w3.org/2000/svg">
<g clip-path="url(#clip0_1_890)">
<path d="M2.25 6L18 33L33.75 6H27.5625L18 22.3125L8.4375 6H2.25Z" fill="#41B883"/>
<path d="M8.4375 6L18 22.3125L27.5625 6H21.9375L18.0734 12.7642L14.0625 6H8.4375Z" fill="#35495E"/>
<path d="M-175.597 -40.97C-175.597 -29.9949 -174.41 -21.0961 -172.334 -14.5703C-169.961 -8.04454 -166.995 -0.925537 -162.842 6.78674C-161.359 9.15974 -160.766 11.5328 -160.766 13.6091C-160.766 16.5754 -162.545 19.5417 -166.402 22.5079L-185.089 34.9662C-187.759 36.7459 -190.428 37.6358 -192.801 37.6358C-195.768 37.6358 -198.734 36.1527 -201.7 33.4831C-205.853 29.0337 -209.412 24.2877 -212.379 19.5417C-215.345 14.499 -218.311 8.86313 -221.574 2.04073C-244.711 29.3303 -273.78 42.9751 -308.782 42.9751C-333.699 42.9751 -353.573 35.8561 -368.107 21.618C-382.642 7.37999 -390.057 -11.6041 -390.057 -35.3341C-390.057 -60.5473 -381.159 -81.0145 -363.065 -96.4391C-344.97 -111.864 -320.944 -119.576 -290.391 -119.576C-280.306 -119.576 -269.924 -118.686 -258.949 -117.203C-247.974 -115.72 -236.702 -113.347 -224.837 -110.677V-132.331C-224.837 -154.874 -229.583 -170.596 -238.778 -179.791C-248.27 -188.986 -264.288 -193.436 -287.128 -193.436C-297.51 -193.436 -308.189 -192.249 -319.164 -189.58C-330.139 -186.91 -340.818 -183.647 -351.2 -179.494C-355.946 -177.418 -359.505 -176.231 -361.581 -175.638C-363.658 -175.045 -365.141 -174.748 -366.327 -174.748C-370.48 -174.748 -372.557 -177.715 -372.557 -183.944V-198.478C-372.557 -203.224 -371.963 -206.784 -370.48 -208.86C-368.997 -210.937 -366.327 -213.013 -362.175 -215.089C-351.793 -220.429 -339.334 -224.878 -324.8 -228.438C-310.265 -232.294 -294.841 -234.073 -278.526 -234.073C-243.228 -234.073 -217.421 -226.065 -200.81 -210.047C-184.496 -194.029 -176.19 -169.706 -176.19 -137.077V-40.97H-175.597ZM-296.027 4.1171C-286.238 4.1171 -276.153 2.33736 -265.475 -1.22215C-254.796 -4.78166 -245.304 -11.3074 -237.295 -20.2062C-232.549 -25.8421 -228.99 -32.0713 -227.21 -39.1903C-225.43 -46.3093 -224.244 -54.9115 -224.244 -64.9967V-77.455C-232.846 -79.5314 -242.041 -81.3111 -251.533 -82.4977C-261.025 -83.6842 -270.221 -84.2774 -279.416 -84.2774C-299.29 -84.2774 -313.825 -80.4213 -323.613 -72.4124C-333.402 -64.4035 -338.148 -53.1317 -338.148 -38.3004C-338.148 -24.359 -334.588 -13.9771 -327.173 -6.85805C-320.054 0.557602 -309.672 4.1171 -296.027 4.1171ZM-57.8365 36.1527C-63.1758 36.1527 -66.7353 35.2628 -69.1083 33.1865C-71.4813 31.4067 -73.5577 27.2539 -75.3374 21.618L-145.045 -207.674C-146.824 -213.606 -147.714 -217.462 -147.714 -219.539C-147.714 -224.285 -145.341 -226.954 -140.595 -226.954H-111.526C-105.89 -226.954 -102.034 -226.065 -99.9574 -223.988C-97.5844 -222.208 -95.8046 -218.056 -94.0249 -212.42L-44.1917 -16.0535L2.08191 -212.42C3.56503 -218.352 5.34476 -222.208 7.71777 -223.988C10.0908 -225.768 14.2436 -226.954 19.5828 -226.954H43.3129C48.9488 -226.954 52.8049 -226.065 55.1779 -223.988C57.5509 -222.208 59.6273 -218.056 60.8138 -212.42L107.681 -13.6805L158.997 -212.42C160.777 -218.352 162.853 -222.208 164.93 -223.988C167.302 -225.768 171.159 -226.954 176.498 -226.954H204.084C208.83 -226.954 211.5 -224.581 211.5 -219.539C211.5 -218.056 211.203 -216.573 210.906 -214.793C210.61 -213.013 210.017 -210.64 208.83 -207.377L137.343 21.9146C135.564 27.8472 133.487 31.7033 131.114 33.4831C128.741 35.2628 124.885 36.4493 119.842 36.4493H94.3325C88.6966 36.4493 84.8405 35.5594 82.4675 33.4831C80.0945 31.4067 78.0181 27.5505 76.8316 21.618L30.8546 -169.706L-14.8257 21.3214C-16.3089 27.2539 -18.0887 31.1101 -20.4617 33.1865C-22.8347 35.2628 -26.9874 36.1527 -32.3267 36.1527H-57.8365ZM323.328 44.1616C307.903 44.1616 292.479 42.3819 277.647 38.8224C262.816 35.2628 251.248 31.4067 243.535 26.9573C238.789 24.2877 235.526 21.3214 234.34 18.6518C233.153 15.9821 232.56 13.0159 232.56 10.3462V-4.78168C232.56 -11.0108 234.933 -13.9771 239.383 -13.9771C241.162 -13.9771 242.942 -13.6804 244.722 -13.0872C246.502 -12.4939 249.171 -11.3074 252.138 -10.1209C262.223 -5.67154 273.198 -2.11203 284.766 0.260971C296.631 2.63399 308.2 3.82048 320.065 3.82048C338.752 3.82048 353.287 0.557587 363.372 -5.96819C373.458 -12.494 378.797 -21.986 378.797 -34.1476C378.797 -42.4532 376.127 -49.2756 370.788 -54.9115C365.449 -60.5473 355.363 -65.59 340.829 -70.336L297.818 -83.6842C276.164 -90.5066 260.146 -100.592 250.358 -113.94C240.569 -126.992 235.526 -141.526 235.526 -156.951C235.526 -169.409 238.196 -180.384 243.535 -189.876C248.875 -199.368 255.994 -207.674 264.892 -214.2C273.791 -221.022 283.876 -226.065 295.742 -229.624C307.607 -233.184 320.065 -234.667 333.116 -234.667C339.642 -234.667 346.465 -234.37 352.99 -233.48C359.813 -232.59 366.042 -231.404 372.271 -230.217C378.204 -228.734 383.839 -227.251 389.179 -225.471C394.518 -223.692 398.671 -221.912 401.637 -220.132C405.79 -217.759 408.756 -215.386 410.536 -212.716C412.315 -210.343 413.205 -207.081 413.205 -202.928V-188.986C413.205 -182.757 410.832 -179.494 406.383 -179.494C404.01 -179.494 400.154 -180.681 395.111 -183.054C378.203 -190.766 359.219 -194.622 338.159 -194.622C321.251 -194.622 307.903 -191.953 298.708 -186.317C289.512 -180.681 284.766 -172.079 284.766 -159.917C284.766 -151.611 287.733 -144.492 293.665 -138.857C299.598 -133.221 310.573 -127.585 326.294 -122.542L368.415 -109.194C389.772 -102.372 405.196 -92.8796 414.392 -80.7179C423.587 -68.5562 428.037 -54.6148 428.037 -39.1903C428.037 -26.4354 425.367 -14.867 420.324 -4.78168C414.985 5.3036 407.866 14.2024 398.671 21.3214C389.475 28.7371 378.5 34.0763 365.745 37.9325C352.397 42.0852 338.456 44.1616 323.328 44.1616Z" fill="#252F3E"/>
</g>
<defs>
<clipPath id="clip0_1_890">
<rect width="36" height="36" fill="white"/>
</clipPath>
</defs>
</svg>
